<?xml version="1.0" standalone="no"?>
<!DOCTYPE svg PUBLIC "-//W3C//DTD SVG 20010904//EN"
 "http://www.w3.org/TR/2001/REC-SVG-20010904/DTD/svg10.dtd">
<svg version="1.0" xmlns="http://www.w3.org/2000/svg"
 width="512.000000pt" height="512.000000pt" viewBox="0 0 512.000000 512.000000"
 preserveAspectRatio="xMidYMid meet">
<metadata>
Created by potrace 1.14, written by Peter Selinger 2001-2017
</metadata>
<g transform="translate(0.000000,512.000000) scale(0.100000,-0.100000)"
fill="#000000" stroke="none">
<path d="M0 2560 l0 -2560 2560 0 2560 0 0 2560 0 2560 -2560 0 -2560 0 0
-2560z m3190 2525 c0 -8 -7 -15 -15 -15 -16 0 -20 12 -8 23 11 12 23 8 23 -8z
m360 5 c0 -5 -4 -10 -10 -10 -5 0 -10 5 -10 10 0 6 5 10 10 10 6 0 10 -4 10
-10z m-535 -140 c3 -5 1 -10 -4 -10 -6 0 -11 5 -11 10 0 6 2 10 4 10 3 0 8 -4
11 -10z m76 -97 c13 -16 12 -17 -3 -4 -10 7 -18 15 -18 17 0 8 8 3 21 -13z
m-432 -92 c-15 -5 -22 6 -14 19 6 9 10 9 16 -1 5 -8 4 -15 -2 -18z m611 19 c0
-5 -4 -10 -10 -10 -5 0 -10 5 -10 10 0 6 5 10 10 10 6 0 10 -4 10 -10z m-940
-20 c0 -5 -4 -10 -10 -10 -5 0 -10 5 -10 10 0 6 5 10 10 10 6 0 10 -4 10 -10z
m1325 -30 c0 -7 -6 -15 -12 -17 -8 -3 -13 4 -13 17 0 13 5 20 13 18 6 -3 12
-11 12 -18z m-305 -107 c32 -19 50 -51 50 -93 0 -36 -53 -84 -84 -76 -12 3
-26 6 -32 6 -6 0 -23 11 -38 25 -39 36 -37 94 5 129 36 30 60 32 99 9z m-390
-23 c0 -5 -5 -10 -11 -10 -5 0 -7 5 -4 10 3 6 8 10 11 10 2 0 4 -4 4 -10z
m-607 -80 c74 -59 23 -164 -67 -139 -29 8 -37 16 -45 45 -12 43 -1 76 31 98
30 21 50 20 81 -4z m2063 -104 c60 -60 37 -91 -60 -80 -77 9 -95 37 -55 88 30
38 72 35 115 -8z m-1645 -113 c7 -7 -8 -21 -47 -44 -37 -22 -69 -52 -91 -84
-38 -55 -51 -64 -63 -45 -6 9 -16 0 -35 -28 -30 -45 -29 -82 4 -124 28 -35 62
-121 63 -159 1 -19 -2 -75 -7 -125 -9 -110 6 -171 71 -288 63 -112 59 -173
-12 -196 -50 -17 -120 -4 -176 32 -141 89 -197 286 -134 467 15 43 26 96 26
126 0 44 -5 57 -33 91 -77 91 -82 115 -43 192 47 91 160 174 263 192 61 11
200 7 214 -7z m396 -3 c26 -6 57 -15 68 -20 11 -5 34 -15 50 -22 l30 -13 -48
-3 c-26 -2 -74 5 -105 14 -70 21 -199 21 -239 0 -39 -20 -66 -52 -98 -116 -37
-75 -52 -90 -91 -90 -37 0 -64 8 -64 20 0 11 88 140 119 173 31 34 73 58 121
68 43 10 191 3 257 -11z m-1407 -30 c0 -5 -9 -10 -21 -10 -11 0 -17 5 -14 10
3 6 13 10 21 10 8 0 14 -4 14 -10z m564 -19 c3 -5 -34 -26 -83 -47 -54 -24
-92 -47 -97 -59 -8 -17 -22 -21 -89 -26 -44 -3 -93 -11 -108 -17 -36 -15 -50
-15 -41 -1 4 8 -1 9 -16 4 -37 -12 -19 16 32 51 56 38 189 81 283 93 98 12
113 12 119 2z m830 -57 c18 -7 22 -34 5 -34 -13 0 -39 -25 -39 -39 0 -6 -7 -8
-16 -4 -14 5 -15 0 -9 -45 8 -63 1 -77 -85 -168 -74 -78 -100 -134 -100 -216
0 -26 -4 -48 -10 -48 -5 0 -10 -9 -10 -19 0 -11 -7 -26 -15 -35 -8 -8 -12 -23
-9 -33 5 -17 5 -17 -6 0 -9 14 -15 16 -26 6 -11 -9 -14 -9 -14 1 0 8 -3 10 -6
7 -10 -9 -61 92 -69 136 -4 20 -4 49 0 64 3 14 53 75 111 134 95 98 118 129
96 129 -16 0 -33 77 -23 102 11 30 42 57 77 68 29 9 118 6 148 -6z m301 -13
c35 -16 110 -80 102 -87 -2 -2 -23 4 -47 12 -44 16 -67 15 -205 -1 -63 -7 -83
4 -68 38 25 54 140 74 218 38z m174 -12 c101 -28 177 -68 225 -118 45 -46 42
-62 -7 -39 -17 8 -48 19 -67 23 -19 4 -48 14 -65 23 -40 20 -195 122 -195 127
0 10 36 4 109 -16z m-1821 -81 c20 -20 14 -28 -25 -29 -21 0 -47 -4 -57 -8
-13 -5 -2 -7 31 -7 37 1 57 -4 72 -18 26 -23 26 -40 3 -86 l-17 -35 -120 0
c-116 0 -122 -1 -180 -33 -33 -17 -71 -40 -84 -49 l-24 -18 13 25 c42 79 157
175 285 236 77 38 86 39 103 22z m275 -32 c48 -20 122 -94 162 -160 45 -76 46
-123 5 -216 -37 -84 -37 -106 1 -200 16 -41 32 -96 36 -122 6 -52 7 -51 -59
-50 -62 1 -225 136 -248 206 -12 37 -10 42 44 148 35 70 56 123 56 144 0 38
-12 44 -32 16 -34 -47 -66 -34 -104 39 -26 52 -41 136 -27 154 39 51 104 67
166 41z m-1215 -32 c29 -33 29 -81 -2 -119 -21 -26 -31 -30 -71 -30 -40 0 -51
4 -71 30 -19 23 -24 38 -20 64 13 84 109 117 164 55z m2800 -39 c24 -10 41
-22 39 -28 -2 -6 -45 -11 -108 -11 -137 -2 -184 -23 -249 -115 -37 -53 -54
-67 -102 -87 -57 -24 -138 -42 -138 -30 0 3 23 28 50 54 28 26 67 76 88 111
63 109 115 133 272 128 70 -3 119 -10 148 -22z m-3128 5 c0 -5 -4 -10 -10 -10
-5 0 -10 5 -10 10 0 6 5 10 10 10 6 0 10 -4 10 -10z m3381 -35 c12 8 142 -36
174 -58 66 -46 127 -104 155 -148 17 -25 30 -49 30 -53 0 -4 -24 17 -52 46
-29 30 -84 73 -123 96 -38 24 -92 59 -120 78 -67 46 -74 43 -18 -8 45 -42 82
-105 83 -141 0 -10 -21 -37 -46 -61 -40 -39 -55 -45 -132 -61 -48 -10 -91 -20
-97 -24 -5 -3 -14 -6 -20 -7 -5 -1 -17 -4 -25 -6 -8 -3 -11 -3 -7 0 4 2 0 10
-9 17 -17 12 -39 9 -85 -10 -21 -8 -33 20 -19 44 5 10 43 35 85 55 41 21 83
49 94 62 19 24 19 25 0 85 -16 50 -17 65 -7 78 21 27 27 28 80 20 28 -5 54 -6
59 -4z m-2627 -28 c21 -16 18 -50 -5 -55 -9 -1 -26 6 -40 16 -20 17 -21 22
-10 36 16 19 31 20 55 3z m323 -87 c3 -11 6 -20 7 -20 1 0 19 9 41 20 52 27
92 25 151 -6 66 -35 110 -79 130 -130 16 -41 16 -42 -20 -119 -65 -141 -52
-175 122 -308 123 -94 188 -133 277 -165 64 -23 89 -26 290 -32 218 -6 221 -6
293 -37 40 -18 98 -50 127 -73 59 -45 117 -123 109 -145 -4 -8 -29 -16 -62
-20 -103 -11 -116 -13 -190 -29 -86 -19 -317 -129 -370 -176 -7 -7 -57 -33
-110 -58 -90 -43 -104 -47 -189 -50 -80 -3 -97 -1 -131 18 -55 31 -69 61 -82
180 -17 155 -43 205 -180 343 -122 123 -156 179 -170 274 -11 82 5 164 51 266
23 48 38 94 35 102 -9 26 -39 16 -81 -25 -22 -22 -51 -41 -65 -42 -20 -3 -25
2 -30 27 -6 29 -6 30 -18 8 -19 -34 -14 -113 10 -163 13 -29 22 -73 25 -125 5
-75 4 -82 -20 -107 -48 -52 -133 -32 -207 49 -53 57 -72 104 -73 178 -1 54 5
71 49 154 34 66 65 108 105 145 87 81 165 110 176 66z m2569 -101 c49 -33 114
-125 117 -164 1 -13 -1 -24 -5 -24 -17 0 -178 179 -178 198 0 28 14 26 66 -10z
m-3816 -9 c0 -5 -5 -10 -11 -10 -5 0 -7 5 -4 10 3 6 8 10 11 10 2 0 4 -4 4
-10z m972 -16 c-5 -23 -57 -111 -85 -141 -12 -14 -32 -23 -49 -23 -34 0 -112
-38 -157 -75 -37 -31 -38 -28 -10 22 60 109 143 187 236 223 55 22 69 21 65
-6z m3578 2 c0 -3 -4 -8 -10 -11 -5 -3 -10 -1 -10 4 0 6 5 11 10 11 6 0 10 -2
10 -4z m-454 -211 c56 -59 134 -203 134 -248 0 -36 -17 -26 -39 22 -32 72 -86
155 -138 211 -29 31 -50 60 -46 63 16 17 41 3 89 -48z m-226 8 c102 -36 180
-108 180 -167 0 -21 -7 -27 -37 -35 -52 -15 -73 -14 -73 4 0 8 -9 19 -19 25
-24 13 -96 13 -120 1 -29 -16 -68 -81 -92 -156 -22 -66 -49 -128 -49 -113 0 4
-12 -5 -27 -19 -16 -14 -27 -30 -25 -35 1 -5 -2 -7 -8 -3 -5 3 -10 3 -10 -2 0
-4 -16 -19 -35 -32 -19 -13 -35 -27 -35 -30 0 -8 95 3 153 18 57 14 86 37 108
89 66 149 87 172 176 198 76 22 147 22 171 1 20 -19 42 -80 42 -118 0 -37 -34
-84 -75 -103 -42 -20 -65 -15 -65 13 0 51 -53 29 -80 -32 -10 -23 -21 -61 -25
-84 -8 -52 -38 -91 -84 -110 -19 -8 -88 -19 -152 -23 -108 -8 -146 -16 -274
-61 -42 -15 -177 -22 -194 -11 -7 6 -16 32 -18 58 -4 42 0 59 32 119 49 92
103 156 168 196 95 59 97 63 97 148 0 128 30 194 111 248 67 44 162 50 259 16z
m-3043 -25 c5 -7 15 -35 21 -63 12 -49 73 -183 109 -238 18 -28 18 -29 -5 -47
-17 -14 -32 -17 -60 -13 -61 10 -158 61 -197 105 -34 37 -37 45 -32 84 6 57
59 139 106 164 43 23 46 23 58 8z m1817 -59 c-4 -7 0 -9 13 -5 14 5 28 -5 56
-43 37 -49 46 -71 26 -71 -5 0 -8 4 -5 9 3 5 -5 12 -18 15 -39 10 -86 55 -86
82 0 13 5 24 11 24 5 0 7 -5 3 -11z m738 -27 c40 -25 58 -58 58 -109 0 -32
-11 -47 -98 -137 -88 -90 -126 -141 -170 -226 -44 -85 -139 -120 -243 -89 -80
24 -89 124 -25 281 67 167 136 248 251 295 49 20 184 11 227 -15z m-3542 -2
c0 -5 -5 -10 -11 -10 -5 0 -7 5 -4 10 3 6 8 10 11 10 2 0 4 -4 4 -10z m766
-112 l-1 -82 -30 -6 c-43 -9 -88 -35 -124 -70 -40 -40 -39 -24 1 58 28 56 131
182 150 182 3 0 5 -37 4 -82z m3308 34 c3 -5 -1 -9 -9 -9 -8 0 -12 4 -9 9 3 4
7 8 9 8 2 0 6 -4 9 -8z m350 -179 c13 -21 35 -72 47 -113 31 -100 34 -334 5
-420 -41 -122 -120 -224 -275 -352 -114 -94 -205 -145 -316 -177 -98 -28 -130
-33 -267 -40 l-121 -6 -13 -55 c-16 -70 -67 -163 -114 -210 -61 -61 -223 -127
-466 -190 -253 -66 -387 -47 -559 79 -150 110 -202 131 -320 131 -46 0 -117
-7 -157 -16 -43 -9 -123 -16 -193 -16 -103 0 -130 4 -192 25 -117 41 -193 105
-193 162 0 30 33 74 63 85 17 5 60 10 96 10 90 1 208 23 262 50 46 23 147 96
259 188 36 29 94 67 130 84 36 16 73 34 82 39 25 13 185 11 233 -3 22 -6 129
-11 240 -12 194 -1 202 -2 256 -27 67 -32 125 -87 148 -143 22 -50 17 -141 -8
-171 -9 -11 -23 -33 -31 -49 -21 -41 -109 -118 -169 -146 -44 -21 -51 -28 -46
-47 4 -18 0 -23 -28 -28 -17 -4 -38 -12 -45 -18 -8 -6 -60 -11 -123 -11 -76 0
-105 -3 -93 -9 20 -11 217 -27 224 -18 6 7 20 11 80 20 27 4 44 12 42 19 -1 7
2 12 8 12 5 0 10 -7 10 -15 0 -8 8 -15 18 -16 12 0 10 -3 -8 -10 -20 -8 -22
-12 -10 -19 12 -8 10 -10 -7 -10 -13 0 -23 -5 -23 -12 0 -6 -3 -9 -6 -5 -8 8
-37 -20 -31 -30 8 -12 -57 -10 -65 2 -5 6 -8 3 -8 -7 0 -11 -5 -15 -15 -12 -8
4 -15 1 -15 -5 0 -6 -7 -11 -16 -11 -8 0 -13 -4 -10 -9 7 -10 -42 -7 -84 5
-21 6 -23 5 -12 -7 28 -30 282 -11 282 21 0 5 9 6 20 3 11 -3 73 11 138 32
124 39 148 48 226 86 50 24 131 94 131 113 1 6 14 30 30 54 24 36 29 56 33
123 l5 80 -27 -12 c-26 -12 -35 -29 -16 -29 6 0 6 -9 0 -24 -5 -13 -12 -52
-16 -85 -4 -42 -11 -61 -20 -61 -8 0 -14 5 -14 10 0 6 -5 10 -11 10 -8 0 -7
-5 2 -16 7 -9 9 -18 3 -22 -5 -4 -9 -14 -9 -22 0 -8 -5 -14 -12 -13 -7 2 -10
-6 -8 -17 2 -12 0 -18 -6 -15 -5 4 -9 1 -9 -5 0 -6 -4 -8 -10 -5 -5 3 -10 1
-10 -4 0 -6 -9 -11 -20 -11 -11 0 -20 5 -20 10 0 15 -19 12 -37 -5 -8 -8 -18
-13 -23 -10 -4 3 -25 7 -46 10 -22 4 -47 8 -56 11 -13 4 -16 1 -12 -10 4 -11
0 -13 -15 -9 -14 3 -23 0 -27 -11 -3 -9 -11 -16 -17 -16 -7 0 -7 4 1 12 17 17
15 28 -7 28 -10 0 -22 -7 -25 -16 -3 -8 -2 -13 3 -10 5 4 7 -4 3 -16 l-5 -21
-19 22 c-10 13 -18 18 -18 12 0 -7 -4 -10 -9 -7 -5 3 -11 -1 -15 -9 -3 -8 -10
-15 -16 -15 -6 0 -8 4 -5 10 3 5 1 10 -6 10 -6 0 0 9 14 20 14 11 27 20 30 20
3 0 34 18 68 40 35 22 78 47 94 56 107 59 163 137 171 240 5 64 4 68 -10 50
-9 -11 -16 -27 -16 -36 0 -24 -69 -90 -94 -90 -2 0 -1 31 2 69 7 101 -25 161
-136 252 -26 22 -132 69 -176 79 -26 6 -130 9 -236 8 -222 -3 -227 -2 -190 67
28 51 51 70 138 114 252 127 510 94 709 -92 126 -118 204 -259 224 -404 6 -43
11 -79 12 -80 6 -6 225 18 255 28 38 12 80 49 75 65 -4 13 56 47 97 56 19 3
55 11 80 16 25 6 62 12 82 15 55 7 168 82 168 110 0 6 -8 3 -17 -6 -64 -57
-426 -110 -533 -78 -24 7 -23 9 15 19 45 12 149 28 240 37 75 8 139 27 234 72
55 26 82 34 107 30 24 -4 37 0 50 14 16 18 16 19 -8 19 -14 0 -33 9 -42 19
-16 18 -16 20 6 35 12 9 27 16 33 16 15 0 49 38 68 76 9 17 21 68 26 113 11
89 -3 210 -35 294 -21 53 -30 147 -15 147 6 0 22 -17 35 -37z m-3033 -29 c43
-29 203 -214 250 -289 34 -54 79 -173 79 -211 0 -33 -17 -47 -80 -62 -37 -9
-173 7 -235 28 -102 34 -275 284 -292 422 -7 62 12 92 80 124 71 33 140 29
198 -12z m-471 -12 c83 -40 111 -93 118 -216 l5 -94 60 -58 c32 -33 77 -86 98
-118 53 -81 51 -114 -4 -135 -71 -27 -185 -3 -234 50 -34 38 -72 130 -88 216
-9 43 -20 89 -26 103 -28 69 -137 88 -216 37 -72 -46 -103 -33 -103 44 0 59
28 102 101 152 89 61 188 67 289 19z m-629 -131 c29 -23 32 -85 6 -124 -24
-37 -80 -46 -115 -20 -21 16 -28 30 -30 66 -3 39 1 51 22 72 31 31 83 33 117
6z m4040 -22 c51 -55 61 -148 24 -220 -20 -37 -55 -57 -56 -32 -3 77 -31 238
-45 261 -14 21 -13 22 17 22 22 0 40 -9 60 -31z m-3835 -26 c-11 -62 -30 -123
-38 -123 -5 0 -6 12 -2 28 23 107 55 181 40 95z m-439 -55 c-3 -8 -6 -5 -6 6
-1 11 2 17 5 13 3 -3 4 -12 1 -19z m4109 -71 c-12 -30 -56 -70 -56 -52 0 5 5
15 47 82 22 36 28 15 9 -30z m-3433 13 c59 -51 157 -212 157 -257 0 -48 -94
-17 -174 57 -68 64 -81 71 -73 40 7 -28 -36 -27 -62 1 -42 45 -34 106 21 155
46 43 86 44 131 4z m-218 -76 c1 -21 7 -60 15 -86 16 -55 10 -67 -46 -87 -48
-17 -56 -6 -52 80 3 54 9 73 32 103 34 45 50 42 51 -10z m-555 -74 c33 -18 42
-45 30 -90 -12 -45 -42 -70 -83 -70 -60 0 -92 45 -75 107 14 54 77 80 128 53z
m3806 1 c-3 -5 -35 -14 -70 -20 -34 -6 -88 -20 -119 -30 -37 -13 -59 -16 -63
-10 -18 29 88 68 184 69 41 0 71 -4 68 -9z m-3345 -169 c13 -21 11 -25 -36
-68 l-50 -45 -3 33 c-5 45 15 142 41 203 l22 50 6 -75 c3 -41 12 -85 20 -98z
m259 58 c56 -29 131 -126 143 -186 12 -62 -37 -71 -123 -23 -40 22 -73 33
-120 37 -66 5 -89 19 -90 53 0 26 70 110 104 125 40 17 40 17 86 -6z m900 -99
c0 -4 18 -11 40 -14 52 -7 114 -39 119 -62 2 -14 -1 -16 -15 -10 -11 4 -58 10
-106 13 -70 3 -89 2 -93 -10 -4 -9 -17 -13 -40 -10 -20 2 -42 -1 -50 -8 -8 -7
-21 -10 -30 -7 -8 4 -27 0 -41 -8 -15 -8 -32 -11 -38 -8 -6 4 -5 0 2 -9 10
-13 10 -17 -4 -22 -26 -10 -34 -7 -27 11 5 14 3 13 -13 -3 -18 -17 -18 -20 -4
-31 8 -7 10 -13 4 -13 -7 0 -14 -10 -17 -21 -6 -22 -25 -23 -69 -4 -11 4 -23
0 -34 -13 -18 -21 -54 -19 -54 4 0 8 -4 14 -10 14 -5 0 -10 6 -10 13 0 8 -11
19 -25 25 -14 6 -25 18 -25 26 0 10 -6 13 -15 10 -16 -7 -48 13 -41 25 3 4 -5
8 -16 8 -24 2 -58 31 -58 50 0 21 24 25 71 13 62 -17 229 -30 248 -20 9 5 52
14 95 20 44 6 86 16 94 22 7 7 45 12 82 12 38 1 62 4 52 8 -14 5 -13 7 6 7 12
1 22 -3 22 -8z m-1152 -95 c1 -2 -2 -16 -8 -31 -13 -35 -20 -125 -10 -145 23
-47 20 -69 -12 -100 -18 -16 -39 -29 -46 -28 -16 3 -26 71 -26 178 0 122 13
145 74 133 14 -2 26 -6 28 -7z m220 -63 c24 -27 57 -67 73 -89 15 -23 35 -44
44 -47 21 -9 19 -40 -5 -55 -27 -17 -135 -13 -180 6 -19 8 -50 29 -67 46 -28
25 -33 37 -33 74 0 53 12 77 48 96 47 26 72 20 120 -31z m296 -228 c44 -34 58
-55 36 -55 -17 0 -130 60 -130 68 0 34 40 28 94 -13z m-502 -62 c12 -10 18
-30 18 -57 0 -23 5 -58 10 -78 8 -27 8 -50 -1 -80 -10 -41 -12 -42 -26 -23
-54 71 -77 174 -51 230 13 29 25 31 50 8z m4088 -22 c0 -23 -16 -36 -25 -21
-9 14 1 40 15 40 5 0 10 -9 10 -19z m-3892 -223 c6 -6 43 -1 96 11 48 12 95
21 104 21 38 0 -144 -78 -241 -103 -74 -19 -84 -9 -67 62 13 53 32 77 51 65 8
-5 9 -3 4 6 -5 8 -1 18 11 27 18 13 19 11 26 -33 4 -26 11 -51 16 -56z m3292
-163 c0 -8 -7 -15 -15 -15 -16 0 -20 12 -8 23 11 12 23 8 23 -8z m668 -38 c3
-14 -1 -18 -20 -15 -12 2 -24 11 -26 21 -3 14 1 18 20 15 12 -2 24 -11 26 -21z
m-470 -120 c5 -25 -28 -34 -44 -12 -21 28 -17 37 13 33 17 -2 29 -10 31 -21z
m-508 -77 c0 -5 -4 -10 -10 -10 -5 0 -10 5 -10 10 0 6 5 10 10 10 6 0 10 -4
10 -10z m-1738 -461 c-76 -151 -146 -294 -156 -319 -10 -25 -31 -78 -46 -119
-44 -113 -47 -115 -159 -107 -52 4 -98 9 -102 12 -12 7 -11 71 1 79 6 4 10 -6
10 -23 0 -26 4 -30 38 -36 70 -11 129 -7 151 12 11 9 31 46 44 82 44 118 60
153 167 365 91 182 180 338 187 331 2 -1 -59 -126 -135 -277z"/>
<path d="M2590 2120 c-157 -8 -210 -23 -262 -78 -41 -42 -84 -121 -94 -170 -6
-29 -4 -32 18 -32 20 0 27 8 39 42 7 24 31 59 52 80 52 50 132 67 367 77 135
6 196 13 225 25 41 18 75 43 75 58 0 9 -208 8 -420 -2z"/>
</g>
</svg>
